Coordinates
version=1
nRows=24
nColumns=24
inDegrees=yes

Units are S.I. units (second, meters, Newtons, ...)
Angles are in degrees.

endheader
time	pelvis_tilt	pelvis_list	pelvis_rotation	pelvis_tx	pelvis_ty	pelvis_tz	hip_flexion_r	hip_adduction_r	hip_rotation_r	knee_angle_r	ankle_angle_r	subtalar_angle_r	mtp_angle_r	hip_flexion_l	hip_adduction_l	hip_rotation_l	knee_angle_l	ankle_angle_l	subtalar_angle_l	mtp_angle_l	lumbar_extension	lumbar_bending	lumbar_rotation
      3.94500000	     -9.96799685	      0.97408985	      4.94614610	     -1.80887854	     -0.01786301	     -0.72873198	     32.98856027	     -4.32236210	    -18.79960307	     -8.54041157	     -1.72984344	     -1.12108204	     15.86385958	     -2.79990293	      4.95831751	    -12.24470384	    -10.30195194	     11.78275503	      3.95061660	      8.71540593	      6.03001420	     -0.08863992	    -10.62922625
      3.95000000	     -9.95588484	      0.90963221	      4.99678256	     -1.80294284	     -0.01840113	     -0.72853891	     32.98077308	     -4.22344565	    -18.35581470	     -8.80921006	     -1.67368654	     -1.03431681	     15.93462131	     -2.95788804	      4.75549720	    -12.15597624	    -10.77929725	     11.68621629	      4.07359999	      8.70902449	      6.11875718	      0.01389593	    -10.73753974
      3.95500000	     -9.92597817	      0.84267336	      5.01102342	     -1.79698314	     -0.01894781	     -0.72823478	     32.93977590	     -4.07026898	    -17.61071949	     -9.11917191	     -1.75431097	     -1.43302549	     15.83809257	     -3.08682860	      4.51307451	    -12.32849870	    -11.36828021	     11.72255965	      4.55086327	      8.62122022	      6.18757692	      0.13062118	    -10.79564308
      3.96000000	     -9.89047258	      0.81359602	      5.10847103	     -1.79090400	     -0.01947213	     -0.72810117	     32.89661633	     -4.03711037	    -17.07242659	     -9.57294796	     -1.67969825	     -1.48128261	     15.82602251	     -3.24981186	      4.33240712	    -12.21870743	    -11.90477366	     11.56092989	      4.74126783	      8.60164358	      6.26932728	      0.20436499	    -10.96542982
      3.96500000	     -9.89487730	      0.73409174	      5.11481569	     -1.78478601	     -0.02005447	     -0.72771111	     32.88439057	     -3.85221955	    -16.12550777	    -10.03554661	     -1.84949742	     -2.16575455	     15.33446456	     -3.32709783	      4.06772077	    -12.35767756	    -12.53039372	     11.51718504	      5.14461937	      8.50399378	      6.39344301	      0.32512014	    -11.01219684
      3.97000000	     -9.86964850	      0.70359117	      5.12625788	     -1.77856762	     -0.02063971	     -0.72730933	     32.86333536	     -3.72738746	    -15.22897637	    -10.66280385	     -1.76967759	     -2.54451552	     14.06823230	     -3.44960565	      3.85084156	    -12.46071115	    -13.15043959	     11.41318158	      5.54297598	      8.37014525	      6.49765039	      0.39661393	    -11.06518000
      3.97500000	     -9.85891610	      0.63089980	      5.29704069	     -1.77237596	     -0.02112717	     -0.72711863	     32.81700966	     -3.66792496	    -14.65973747	    -11.24027082	     -1.96111751	     -2.99431818	     13.81747825	     -3.50927502	      3.59011423	    -12.30152185	    -13.82078277	     11.16934613	      5.75254119	      8.36235579	      6.61485711	      0.49271739	    -11.29278901
      3.98000000	     -9.86308565	      0.57325366	      5.35574027	     -1.76607019	     -0.02165779	     -0.72672507	     32.79355515	     -3.54171035	    -13.88367090	    -11.83851070	     -2.22848878	     -3.61772345	     13.33308075	     -3.56281496	      3.33317743	    -12.31378999	    -14.49423208	     10.93505856	      6.08808978	      8.34821071	      6.76227848	      0.58458269	    -11.41344619
      3.98500000	     -9.85455428	      0.50208101	      5.31070378	     -1.75963475	     -0.02217520	     -0.72614075	     32.76569976	     -3.32985226	    -13.00911526	    -12.49094542	     -2.41710582	     -4.15238786	     11.85446199	     -3.62592982	      3.04017578	    -12.55487221	    -15.19158613	     10.68530788	      6.54163136	      8.35621181	      6.91414555	      0.70108803	    -11.43783354
      3.99000000	     -9.86852796	      0.35396203	      5.50406601	     -1.75320026	     -0.02255169	     -0.72590060	     32.71298163	     -3.21789827	    -12.72435656	    -13.05725451	     -2.83205893	     -4.63590183	     11.51855754	     -3.61167724	      2.67693784	    -12.34072069	    -15.93892174	     10.32369856	      6.75362973	      8.35836985	      7.10328775	      0.86756446	    -11.71903583
      3.99500000	     -9.89490593	      0.21154839	      5.57805164	     -1.74676370	     -0.02291563	     -0.72544084	     32.68821725	     -3.02805858	    -12.28088936	    -13.59969861	     -3.39110097	     -5.37633653	     10.94573945	     -3.56143098	      2.30141801	    -12.36493931	    -16.73145063	      9.94752072	      7.08029876	      8.35542168	      7.29857979	      1.04332385	    -11.86488360
      4.00000000	     -9.91948656	      0.03701172	      5.63040444	     -1.74027049	     -0.02319365	     -0.72491190	     32.65735759	     -2.80318774	    -11.96339214	    -14.12030821	     -3.98308564	     -6.08936284	     10.23995738	     -3.48429315	      1.87752064	    -12.42284463	    -17.56968556	      9.52099203	      7.42694184	      8.35698550	      7.50287628	      1.24678334	    -11.98676362
      4.00500000	     -9.90623185	     -0.14686122	      5.55241725	     -1.73375729	     -0.02338997	     -0.72415995	     32.61266484	     -2.47877538	    -11.46339011	    -14.72614913	     -4.32321681	     -6.63537596	      7.74836003	     -3.43297069	      1.41510696	    -12.75241127	    -18.43454786	      9.03403560	      7.86260965	      8.52839261	      7.65953165	      1.48704423	    -11.98769423
      4.01000000	     -9.93066487	     -0.32386222	      5.66926095	     -1.72734011	     -0.02346479	     -0.72370981	     32.57601171	     -2.32626228	    -11.46813705	    -15.21281111	     -4.97544304	     -7.32634424	      7.42381991	     -3.27327830	      0.98923841	    -12.62912945	    -19.37132172	      8.43553977	      8.04313173	      8.49352425	      7.84995752	      1.68492646	    -12.18838481
      4.01500000	     -9.95939479	     -0.49744084	      5.63212410	     -1.72087350	     -0.02350445	     -0.72296402	     32.54146971	     -2.05594275	    -11.13978801	    -15.68473970	     -5.61276494	     -8.26447816	      6.46947664	     -3.07620723	      0.52111885	    -12.90167114	    -20.38337956	      7.82375880	      8.44110156	      8.51856033	      8.04293608	      1.90104863	    -12.21401932
      4.02000000	     -9.98544748	     -0.71603797	      5.60133077	     -1.71434073	     -0.02340928	     -0.72226458	     32.48967845	     -1.75805683	    -10.94160292	    -16.17464688	     -6.11954075	     -9.01192113	      4.88941104	     -2.85421247	      0.01164820	    -13.05609085	    -21.41554434	      7.08768008	      8.71433585	      8.64874482	      8.24877532	      2.17571150	    -12.23579656
      4.02500000	     -9.98487471	     -0.91948408	      5.71233366	     -1.70782100	     -0.02319131	     -0.72185728	     32.36892368	     -1.59869365	    -11.09644794	    -16.60979272	     -6.58269066	     -9.60415429	      4.45633443	     -2.58732365	     -0.45954326	    -12.95748145	    -22.53018113	      6.22789700	      8.72433332	      8.59944216	      8.42923892	      2.41552760	    -12.44014947
      4.03000000	     -9.97631416	     -1.10423065	      5.65950256	     -1.70133764	     -0.02294359	     -0.72101957	     32.25123906	     -1.29517347	    -10.77528664	    -17.11743622	     -6.74136182	    -10.24847605	      1.98568596	     -2.30284527	     -0.97160883	    -13.20781194	    -23.68052422	      5.22295475	      8.91115521	      9.16076048	      8.57884794	      2.64617209	    -12.46678669
      4.03500000	     -9.97595593	     -1.26700389	      5.69447828	     -1.69481957	     -0.02261823	     -0.72048040	     32.09307421	     -1.11736060	    -10.81393313	    -17.49428264	     -7.09564784	    -10.89806170	      1.70467300	     -1.95543031	     -1.41357038	    -13.19573136	    -24.90127338	      4.15648754	      8.83020731	      9.09070156	      8.75226988	      2.85607926	    -12.56179100
      4.04000000	     -9.99745417	     -1.38213972	      5.67233151	     -1.68845250	     -0.02232722	     -0.71971847	     31.94794433	     -0.90898593	    -10.55857159	    -17.85302117	     -7.33597220	    -11.69335476	      0.96258547	     -1.51692868	     -1.84530506	    -13.33238313	    -26.22048825	      2.98719489	      8.84766746	      9.33967558	      8.90937097	      3.01110922	    -12.63886764
      4.04500000	    -10.01252444	     -1.54890880	      5.55751946	     -1.68198432	     -0.02198616	     -0.71886532	     31.78293414	     -0.59466208	    -10.35128683	    -18.21315925	     -7.33013629	    -12.20461775	     -0.55796197	     -1.08100043	     -2.34097658	    -13.56226331	    -27.50046678	      1.49255257	      8.69645542	     10.38515848	      9.07404435	      3.24541420	    -12.54125515
      4.05000000	     -9.93980815	     -1.70718041	      5.57575013	     -1.67556100	     -0.02149215	     -0.71833664	     31.45492526	     -0.38344050	    -10.38492623	    -18.44461441	     -7.34973369	    -12.62436685	     -0.70364351	     -0.66827841	     -2.78918631	    -13.50756280	    -28.87890809	      0.06277357	      8.37167959	     10.30904236	      9.15254352	      3.46536400	    -12.62029121
      4.05500000	    -10.00959429	     -1.83122178	      5.48821446	     -1.66926305	     -0.02117471	     -0.71748002	     31.29423803	     -0.10604114	    -10.14794938	    -18.67538744	     -7.35031453	    -13.27184208	     -1.40290871	     -0.06491654	     -3.23986662	    -13.63916140	    -30.26833777	     -1.70901119	      8.08260201	     11.42631273	      9.35074885	      3.63851177	    -12.58625814
      4.06000000	     -9.90129232	     -1.98746780	      5.49729793	     -1.66312671	     -0.02065822	     -0.71696469	     30.89511449	      0.14184323	    -10.07350393	    -18.82701126	     -7.26122624	    -13.70024160	     -1.57111945	      0.41897795	     -3.68170835	    -13.51598636	    -31.74846858	     -3.37437132	      7.58433603	     11.52013170	      9.33911454	      3.87268584	    -12.66853192
